<?xml version="1.0" encoding="utf-8"?><svg viewBox="0 0 64 64" xmlns="http://www.w3.org/2000/svg" xmlns:xlink="http://www.w3.org/1999/xlink"><style>:root>svg{display:none}:root>svg:target{display:block}</style><svg fill="#5e4d42" viewBox="0 0 72 72" id="icons1-telegram" xmlns="http://www.w3.org/2000/svg"><path d="M36 12c13.255 0 24 10.745 24 24S49.255 60 36 60 12 49.255 12 36s10.745-24 24-24zm8.279 33.783c.441-1.354 2.51-14.853 2.765-17.513.077-.806-.177-1.341-.676-1.58-.603-.29-1.496-.145-2.533.229-1.421.512-19.59 8.227-20.64 8.673-.995.423-1.937.884-1.937 1.552 0 .47.279.734 1.047 1.008.799.285 2.812.895 4.001 1.223 1.145.316 2.448.042 3.178-.412.774-.481 9.71-6.46 10.351-6.984s1.152.147.628.672c-.524.524-6.657 6.477-7.466 7.301-.982 1.001-.285 2.038.374 2.453.752.474 6.163 4.103 6.978 4.685.815.582 1.641.846 2.398.846s1.155-.996 1.532-2.153z"/></svg><svg fill="#5e4d42" viewBox="0 0 50 50" id="icons2-vk" xmlns="http://www.w3.org/2000/svg"><path d="M25 2C12.318 2 2 12.318 2 25s10.318 23 23 23c12.683 0 23-10.318 23-23S37.683 2 25 2zm9.973 27.535c2.237 1.986 2.702 2.695 2.778 2.816.927 1.47-1.028 1.649-1.028 1.649h-4.12s-1.003.011-1.86-.557c-1.397-.915-2.86-2.689-3.888-2.381-.863.258-.855 1.424-.855 2.421 0 .357-.307.517-1 .517h-1.288c-2.257 0-4.706-.76-7.149-3.313-3.456-3.609-6.487-10.879-6.487-10.879s-.179-.366.016-.589c.221-.25.822-.218.822-.218L14.909 19s.376.071.646.261c.223.156.347.454.347.454s.671 2.216 1.526 3.629c1.67 2.758 2.447 2.828 3.014 2.531.828-.43.558-3.362.558-3.362s.037-1.259-.395-1.82c-.333-.434-.97-.665-1.248-.701-.225-.029.151-.423.63-.648.64-.285 1.511-.358 3.013-.344 1.169.011 1.506.081 1.962.186 1.379.318 1.038 1.157 1.038 4.103 0 .944-.13 2.271.582 2.711.307.19 1.359.422 3.231-2.618.889-1.442 1.596-3.834 1.596-3.834s.146-.263.373-.393c.232-.133.225-.13.543-.13S35.832 19 36.532 19c.699 0 1.355-.008 1.468.402.162.589-.516 2.607-2.234 4.797-2.823 3.594-3.136 3.258-.793 5.336z"/></svg><svg fill="#5e4d42" viewBox="0 0 50 50" id="icons3-whatsapp" xmlns="http://www.w3.org/2000/svg"><path d="M25 2C12.318 2 2 12.318 2 25c0 3.96 1.023 7.854 2.963 11.29L2.037 46.73a.999.999 0 0 0 1.203 1.241l10.896-2.699A23.014 23.014 0 0 0 25 48c12.682 0 23-10.318 23-23S37.682 2 25 2zm11.57 31.116c-.492 1.362-2.852 2.605-3.986 2.772-1.018.149-2.306.213-3.72-.231a34.606 34.606 0 0 1-3.366-1.229c-5.923-2.526-9.791-8.415-10.087-8.804-.295-.389-2.411-3.161-2.411-6.03s1.525-4.28 2.067-4.864c.542-.584 1.181-.73 1.575-.73s.787.005 1.132.021c.363.018.85-.137 1.329 1.001.492 1.168 1.673 4.037 1.819 4.33.148.292.246.633.05 1.022s-.294.632-.59.973-.62.76-.886 1.022c-.296.291-.603.606-.259 1.19s1.529 2.493 3.285 4.039c2.255 1.986 4.158 2.602 4.748 2.894.59.292.935.243 1.279-.146.344-.39 1.476-1.703 1.869-2.286s.787-.487 1.329-.292c.542.194 3.445 1.604 4.035 1.896.59.292.984.438 1.132.681.148.242.148 1.41-.344 2.771z"/></svg><svg fill="#5e4d42" viewBox="0 0 50 50" id="icons4-instagram" xmlns="http://www.w3.org/2000/svg"><path d="M16 3C8.83 3 3 8.83 3 16v18c0 7.17 5.83 13 13 13h18c7.17 0 13-5.83 13-13V16c0-7.17-5.83-13-13-13H16zm21 8c1.1 0 2 .9 2 2s-.9 2-2 2-2-.9-2-2 .9-2 2-2zm-12 3c6.07 0 11 4.93 11 11s-4.93 11-11 11-11-4.93-11-11 4.93-11 11-11zm0 2c-4.96 0-9 4.04-9 9s4.04 9 9 9 9-4.04 9-9-4.04-9-9-9z"/></svg></svg>