<svg xmlns="http://www.w3.org/2000/svg" viewBox="0 0 256 256" width="64" height="64"><path d="M128 0c-2.219 0-4 1.797-4 4v24c0 2.203 1.781 4 4 4 2.219 0 4-1.797 4-4V4c0-2.203-1.781-4-4-4zM84.61 16.453a3.703 3.703 0 00-1.563.297c-2.047.813-3.031 3.14-2.203 5.188l5.984 14.843c.625 1.563 2.125 2.5 3.719 2.5.5 0 1-.093 1.5-.281 2.047-.828 3.031-3.172 2.203-5.219l-6-14.828c-.61-1.531-2.078-2.469-3.64-2.5zm86.78 0c-1.562.031-3.03.969-3.64 2.5l-6 14.828A4.024 4.024 0 00163.953 39c.5.188 1 .281 1.5.281 1.594 0 3.094-.937 3.719-2.5l5.984-14.844c.828-2.046-.156-4.375-2.203-5.187a3.704 3.704 0 00-1.562-.297zM40.314 36.313c-1.016 0-2.032.39-2.813 1.171a3.97 3.97 0 000 5.657l16.953 16.984a4.076 4.076 0 002.844 1.172 4.067 4.067 0 002.828-1.172 4.017 4.017 0 000-5.672L43.141 37.484a3.974 3.974 0 00-2.828-1.172zm175.375 0c-1.032 0-2.047.39-2.829 1.171l-16.984 16.97a4.017 4.017 0 000 5.671 4 4 0 002.828 1.172 4.076 4.076 0 002.844-1.172L218.5 43.141a3.97 3.97 0 000-5.657 3.965 3.965 0 00-2.812-1.171zM128 40c-48.531 0-88 39.469-88 88s39.469 88 88 88 88-39.469 88-88-39.469-88-88-88zm0 8c44.11 0 80 35.89 80 80s-35.89 80-80 80-80-35.89-80-80 35.89-80 80-80zm0 16a63.874 63.874 0 00-43.11 16.703 4.017 4.017 0 00-.265 5.656 3.995 3.995 0 002.953 1.297c.969 0 1.938-.344 2.703-1.047A55.859 55.859 0 01128 72c7.031 0 13.89 1.281 20.375 3.813 2.047.796 4.375-.204 5.172-2.266a3.992 3.992 0 00-2.281-5.172C143.859 65.469 136.03 64 128 64zm37.406 13.438c-1.015.109-2 .609-2.703 1.453a3.997 3.997 0 00.594 5.625 56.753 56.753 0 016.062 5.734 3.995 3.995 0 002.954 1.297 3.98 3.98 0 002.703-1.047 4.017 4.017 0 00.25-5.656 66.517 66.517 0 00-6.922-6.531 3.957 3.957 0 00-2.938-.875zM20.375 80.547a4.002 4.002 0 00-3.64 2.5 4.007 4.007 0 002.202 5.203l14.844 6c.485.203 1 .297 1.5.297a4.005 4.005 0 003.703-2.5 4.005 4.005 0 00-2.203-5.219l-14.844-6a3.846 3.846 0 00-1.562-.281zm215.25 0a3.846 3.846 0 00-1.562.281l-14.844 6a4.005 4.005 0 00-2.203 5.219 4.005 4.005 0 003.703 2.5c.5 0 1.015-.094 1.5-.297l14.844-6a3.994 3.994 0 002.203-5.203 4.002 4.002 0 00-3.641-2.5zM4 124c-2.219 0-4 1.797-4 4 0 2.203 1.781 4 4 4h24c2.219 0 4-1.797 4-4 0-2.203-1.781-4-4-4zm224 0c-2.219 0-4 1.797-4 4 0 2.203 1.781 4 4 4h24c2.219 0 4-1.797 4-4 0-2.203-1.781-4-4-4zM80.125 144.313a4.562 4.562 0 00-1.562.312l-7.36 3.125c-2.031.875-2.984 3.219-2.125 5.25a3.997 3.997 0 003.688 2.438 3.93 3.93 0 001.562-.313l7.36-3.125c2.046-.86 2.984-3.203 2.125-5.25a4.038 4.038 0 00-3.688-2.437zm11.11 16.453c-1.032 0-2.048.39-2.829 1.172l-5.656 5.656a3.999 3.999 0 000 5.656 3.974 3.974 0 002.828 1.172 3.97 3.97 0 002.828-1.172l5.656-5.656a3.998 3.998 0 000-5.656 3.974 3.974 0 00-2.828-1.172zm-55.891.687c-.516 0-1.047.094-1.563.297l-14.843 6a3.994 3.994 0 00-2.204 5.203 3.982 3.982 0 003.704 2.5c.5 0 1.015-.078 1.5-.281l14.843-6a4.005 4.005 0 002.203-5.219 4.01 4.01 0 00-3.64-2.5zm185.328.016c-1.563.031-3.031.953-3.656 2.484a4.005 4.005 0 002.203 5.219l14.844 6c.484.203 1 .281 1.5.281a3.982 3.982 0 003.703-2.5 4.007 4.007 0 00-2.203-5.203l-14.844-6a3.867 3.867 0 00-1.547-.281zm-112.219 10.75a4.026 4.026 0 00-3.64 2.5l-3 7.406a4.013 4.013 0 002.218 5.219c.485.203.985.281 1.485.281 1.593 0 3.093-.937 3.718-2.5l3-7.422a4.014 4.014 0 00-2.218-5.203 3.846 3.846 0 00-1.563-.281zm39.094 0a3.893 3.893 0 00-1.563.281 4.014 4.014 0 00-2.218 5.203l3 7.422c.625 1.563 2.125 2.5 3.718 2.5.5 0 1-.078 1.485-.281a4.013 4.013 0 002.219-5.219l-3-7.406a4.026 4.026 0 00-3.641-2.5zM128 176c-2.219 0-4 1.797-4 4v8c0 2.203 1.781 4 4 4 2.219 0 4-1.797 4-4v-8c0-2.203-1.781-4-4-4zm-70.703 18.703c-1.031 0-2.047.39-2.844 1.172L37.5 212.859a3.97 3.97 0 000 5.657 3.938 3.938 0 002.813 1.171 3.95 3.95 0 002.828-1.171l16.984-16.97a4.017 4.017 0 000-5.671 4.027 4.027 0 00-2.828-1.172zm141.406 0c-1.016 0-2.031.39-2.828 1.172a4.017 4.017 0 000 5.672l16.984 16.969a3.948 3.948 0 002.828 1.172 3.94 3.94 0 002.813-1.172 3.97 3.97 0 000-5.657l-16.953-16.984a4.036 4.036 0 00-2.844-1.172zM90.484 216.72a4.031 4.031 0 00-3.656 2.5l-5.984 14.844c-.828 2.046.156 4.375 2.203 5.187.484.203 1 .313 1.5.313a3.996 3.996 0 003.703-2.516l6-14.828a4.024 4.024 0 00-2.203-5.22 3.941 3.941 0 00-1.563-.281zm75.032 0a3.941 3.941 0 00-1.563.281c-2.047.828-3.031 3.172-2.203 5.219l6 14.828a3.996 3.996 0 003.703 2.516c.5 0 1.016-.11 1.5-.313 2.047-.812 3.031-3.14 2.203-5.187l-5.984-14.844a4.031 4.031 0 00-3.656-2.5zM128 224c-2.219 0-4 1.797-4 4v24c0 2.203 1.781 4 4 4 2.219 0 4-1.797 4-4v-24c0-2.203-1.781-4-4-4z" fill="#fff" font-family="none" font-weight="none" font-size="none" text-anchor="none"/></svg>