<svg fill="#5e4d42" xmlns="http://www.w3.org/2000/svg" viewBox="0 0 72 72" width="64" height="64"><path d="M36 12c13.255 0 24 10.745 24 24S49.255 60 36 60 12 49.255 12 36s10.745-24 24-24zm8.279 33.783c.441-1.354 2.51-14.853 2.765-17.513.077-.806-.177-1.341-.676-1.58-.603-.29-1.496-.145-2.533.229-1.421.512-19.59 8.227-20.64 8.673-.995.423-1.937.884-1.937 1.552 0 .47.279.734 1.047 1.008.799.285 2.812.895 4.001 1.223 1.145.316 2.448.042 3.178-.412.774-.481 9.71-6.46 10.351-6.984s1.152.147.628.672c-.524.524-6.657 6.477-7.466 7.301-.982 1.001-.285 2.038.374 2.453.752.474 6.163 4.103 6.978 4.685.815.582 1.641.846 2.398.846s1.155-.996 1.532-2.153z"/></svg>