<svg xmlns="http://www.w3.org/2000/svg" xmlns:xlink="http://www.w3.org/1999/xlink" viewBox="0,0,256,256" width="64px" height="64px"><g fill="#ffffff" fill-rule="nonzero" stroke="none" stroke-width="1" stroke-linecap="butt" stroke-linejoin="miter" stroke-miterlimit="10" stroke-dasharray="" stroke-dashoffset="0" font-family="none" font-weight="none" font-size="none" text-anchor="none" style="mix-blend-mode: normal"><g transform="scale(4,4)"><path d="M32,0c-0.55469,0 -1,0.44922 -1,1v6c0,0.55078 0.44531,1 1,1c0.55469,0 1,-0.44922 1,-1v-6c0,-0.55078 -0.44531,-1 -1,-1zM21.15234,4.11328c-0.12891,-0.00391 -0.26172,0.01953 -0.39062,0.07422c-0.51172,0.20313 -0.75781,0.78516 -0.55078,1.29688l1.49609,3.71094c0.15625,0.39063 0.53125,0.625 0.92969,0.625c0.125,0 0.25,-0.02344 0.375,-0.07031c0.51172,-0.20703 0.75781,-0.79297 0.55078,-1.30469l-1.5,-3.70703c-0.15234,-0.38281 -0.51953,-0.61719 -0.91016,-0.625zM42.84766,4.11328c-0.39062,0.00781 -0.75781,0.24219 -0.91016,0.625l-1.5,3.70703c-0.20703,0.51172 0.04297,1.09766 0.55078,1.30469c0.125,0.04688 0.25,0.07031 0.375,0.07031c0.39844,0 0.77344,-0.23437 0.92969,-0.625l1.49609,-3.71094c0.20703,-0.51172 -0.03906,-1.09375 -0.55078,-1.29687c-0.12891,-0.05469 -0.26172,-0.07812 -0.39062,-0.07422zM10.07813,9.07813c-0.25391,0 -0.50781,0.09766 -0.70312,0.29297c-0.39453,0.39063 -0.39453,1.02344 0,1.41406l4.23828,4.24609c0.19531,0.19141 0.45313,0.29297 0.71094,0.29297c0.25391,0 0.51172,-0.10156 0.70703,-0.29297c0.39063,-0.39453 0.39063,-1.02344 0,-1.41797l-4.24609,-4.24219c-0.19531,-0.19531 -0.44922,-0.29297 -0.70703,-0.29297zM53.92188,9.07813c-0.25781,0 -0.51172,0.09766 -0.70703,0.29297l-4.24609,4.24219c-0.39062,0.39453 -0.39062,1.02344 0,1.41797c0.19531,0.19531 0.45313,0.29297 0.70703,0.29297c0.25781,0 0.51563,-0.10156 0.71094,-0.29297l4.23828,-4.24609c0.39453,-0.39062 0.39453,-1.02344 0,-1.41406c-0.19531,-0.19531 -0.44922,-0.29297 -0.70312,-0.29297zM32,10c-12.13281,0 -22,9.86719 -22,22c0,12.13281 9.86719,22 22,22c12.13281,0 22,-9.86719 22,-22c0,-12.13281 -9.86719,-22 -22,-22zM32,12c11.02734,0 20,8.97266 20,20c0,11.02734 -8.97266,20 -20,20c-11.02734,0 -20,-8.97266 -20,-20c0,-11.02734 8.97266,-20 20,-20zM32,16c-3.99609,0 -7.82422,1.48438 -10.77734,4.17578c-0.40625,0.37109 -0.4375,1.00391 -0.06641,1.41406c0.19531,0.21484 0.46875,0.32422 0.73828,0.32422c0.24219,0 0.48438,-0.08594 0.67578,-0.26172c2.58203,-2.35547 5.93359,-3.65234 9.42969,-3.65234c1.75781,0 3.47266,0.32031 5.09375,0.95313c0.51172,0.19922 1.09375,-0.05078 1.29297,-0.56641c0.19922,-0.51562 -0.05469,-1.09375 -0.57031,-1.29297c-1.85156,-0.72656 -3.80859,-1.09375 -5.81641,-1.09375zM41.35156,19.35938c-0.25391,0.02734 -0.5,0.15234 -0.67578,0.36328c-0.34766,0.42969 -0.28125,1.05859 0.14844,1.40625c0.53516,0.4375 1.04688,0.91797 1.51563,1.43359c0.19531,0.21484 0.46875,0.32422 0.73828,0.32422c0.24219,0 0.48438,-0.08594 0.67578,-0.26172c0.40625,-0.375 0.43359,-1.00781 0.0625,-1.41406c-0.53906,-0.58594 -1.12109,-1.13672 -1.73047,-1.63281c-0.21484,-0.17578 -0.48047,-0.24609 -0.73437,-0.21875zM5.09375,20.13672c-0.38672,0.00391 -0.75391,0.24219 -0.91016,0.625c-0.20703,0.51172 0.04297,1.09375 0.55078,1.30078l3.71094,1.5c0.12109,0.05078 0.25,0.07422 0.375,0.07422c0.39453,0 0.76953,-0.23828 0.92578,-0.625c0.20703,-0.51562 -0.03906,-1.09766 -0.55078,-1.30469l-3.71094,-1.5c-0.125,-0.05078 -0.25781,-0.07422 -0.39062,-0.07031zM58.90625,20.13672c-0.13281,-0.00391 -0.26562,0.01953 -0.39062,0.07031l-3.71094,1.5c-0.51172,0.20703 -0.75781,0.78906 -0.55078,1.30469c0.15625,0.38672 0.53125,0.625 0.92578,0.625c0.125,0 0.25391,-0.02344 0.375,-0.07422l3.71094,-1.5c0.51172,-0.20703 0.75781,-0.78906 0.55078,-1.30078c-0.15625,-0.38281 -0.52344,-0.62109 -0.91016,-0.625zM1,31c-0.55469,0 -1,0.44922 -1,1c0,0.55078 0.44531,1 1,1h6c0.55469,0 1,-0.44922 1,-1c0,-0.55078 -0.44531,-1 -1,-1zM57,31c-0.55469,0 -1,0.44922 -1,1c0,0.55078 0.44531,1 1,1h6c0.55469,0 1,-0.44922 1,-1c0,-0.55078 -0.44531,-1 -1,-1zM20.03125,36.07813c-0.13281,0.00391 -0.26172,0.02734 -0.39062,0.07813l-1.83984,0.78125c-0.50781,0.21875 -0.74609,0.80469 -0.53125,1.3125c0.16406,0.38281 0.53125,0.60938 0.92188,0.60938c0.13281,0 0.26172,-0.02344 0.39063,-0.07812l1.83984,-0.78125c0.51172,-0.21484 0.74609,-0.80078 0.53125,-1.3125c-0.16406,-0.37891 -0.53516,-0.60937 -0.92187,-0.60937zM22.80859,40.19141c-0.25781,0 -0.51172,0.09766 -0.70703,0.29297l-1.41406,1.41406c-0.39062,0.39063 -0.39062,1.02344 0,1.41406c0.19531,0.19531 0.44922,0.29297 0.70703,0.29297c0.25781,0 0.51172,-0.09766 0.70703,-0.29297l1.41406,-1.41406c0.39063,-0.39062 0.39063,-1.02344 0,-1.41406c-0.19531,-0.19531 -0.44922,-0.29297 -0.70703,-0.29297zM8.83594,40.36328c-0.12891,0 -0.26172,0.02344 -0.39062,0.07422l-3.71094,1.5c-0.51172,0.20703 -0.75781,0.78906 -0.55078,1.30078c0.15625,0.39063 0.53125,0.625 0.92578,0.625c0.125,0 0.25391,-0.01953 0.375,-0.07031l3.71094,-1.5c0.51172,-0.20703 0.75781,-0.78906 0.55078,-1.30469c-0.15625,-0.38281 -0.51953,-0.61719 -0.91016,-0.625zM55.16797,40.36719c-0.39062,0.00781 -0.75781,0.23828 -0.91406,0.62109c-0.20703,0.51563 0.03906,1.09766 0.55078,1.30469l3.71094,1.5c0.12109,0.05078 0.25,0.07031 0.375,0.07031c0.39453,0 0.76953,-0.23437 0.92578,-0.625c0.20703,-0.51172 -0.04297,-1.09375 -0.55078,-1.30078l-3.71094,-1.5c-0.12891,-0.05078 -0.25781,-0.07422 -0.38672,-0.07031zM27.11328,43.05469c-0.38672,0.00781 -0.75391,0.24219 -0.91016,0.625l-0.75,1.85156c-0.20703,0.51563 0.04297,1.09766 0.55469,1.30469c0.12109,0.05078 0.24609,0.07031 0.37109,0.07031c0.39844,0 0.77344,-0.23437 0.92969,-0.625l0.75,-1.85547c0.20313,-0.51172 -0.04297,-1.09375 -0.55469,-1.30078c-0.125,-0.05078 -0.25781,-0.07422 -0.39062,-0.07031zM36.88672,43.05469c-0.13281,-0.00391 -0.26172,0.01953 -0.39062,0.07031c-0.51172,0.20703 -0.75781,0.78906 -0.55469,1.30078l0.75,1.85547c0.15625,0.39063 0.53125,0.625 0.92969,0.625c0.125,0 0.25,-0.01953 0.37109,-0.07031c0.51172,-0.20703 0.76172,-0.78906 0.55469,-1.30469l-0.75,-1.85156c-0.15625,-0.38281 -0.52344,-0.61719 -0.91016,-0.625zM32,44c-0.55469,0 -1,0.44922 -1,1v2c0,0.55078 0.44531,1 1,1c0.55469,0 1,-0.44922 1,-1v-2c0,-0.55078 -0.44531,-1 -1,-1zM14.32422,48.67578c-0.25781,0 -0.51172,0.09766 -0.71094,0.29297l-4.23828,4.24609c-0.39453,0.39063 -0.39453,1.02344 0,1.41406c0.19141,0.19531 0.44922,0.29297 0.70313,0.29297c0.25781,0 0.51563,-0.09766 0.70703,-0.29297l4.24609,-4.24219c0.39063,-0.39453 0.39063,-1.02344 0,-1.41797c-0.19922,-0.19531 -0.45312,-0.29297 -0.70703,-0.29297zM49.67578,48.67578c-0.25391,0 -0.50781,0.09766 -0.70703,0.29297c-0.39062,0.39453 -0.39062,1.02344 0,1.41797l4.24609,4.24219c0.19141,0.19531 0.44922,0.29297 0.70703,0.29297c0.25391,0 0.51172,-0.09766 0.70313,-0.29297c0.39453,-0.39062 0.39453,-1.02344 0,-1.41406l-4.23828,-4.24609c-0.19922,-0.19531 -0.45312,-0.29297 -0.71094,-0.29297zM22.62109,54.17969c-0.39062,0.00781 -0.75781,0.24219 -0.91406,0.625l-1.49609,3.71094c-0.20703,0.51172 0.03906,1.09375 0.55078,1.29688c0.12109,0.05078 0.25,0.07813 0.375,0.07813c0.39453,0 0.76953,-0.23828 0.92578,-0.62891l1.5,-3.70703c0.20703,-0.51172 -0.04297,-1.09766 -0.55078,-1.30469c-0.12891,-0.05078 -0.26172,-0.07422 -0.39062,-0.07031zM41.37891,54.17969c-0.12891,-0.00391 -0.26172,0.01953 -0.39062,0.07031c-0.51172,0.20703 -0.75781,0.79297 -0.55078,1.30469l1.5,3.70703c0.15625,0.39063 0.53125,0.62891 0.92578,0.62891c0.125,0 0.25391,-0.02734 0.375,-0.07812c0.51172,-0.20312 0.75781,-0.78516 0.55078,-1.29687l-1.49609,-3.71094c-0.15625,-0.38281 -0.52344,-0.61719 -0.91406,-0.625zM32,56c-0.55469,0 -1,0.44922 -1,1v6c0,0.55078 0.44531,1 1,1c0.55469,0 1,-0.44922 1,-1v-6c0,-0.55078 -0.44531,-1 -1,-1z"></path></g></g></svg>